<svg xmlns="http://www.w3.org/2000/svg" viewBox="0 0 169 169"><defs><style>.cls-1{fill:#18cdba;}</style></defs><g id="Layer_2" data-name="Layer 2"><g id="Layer_1-2" data-name="Layer 1"><path class="cls-1" d="M45.82,72.37c6.76-3,13.11-4.65,19.45-10.15,10.78-9.09,16.49-11,22.84-11.62-5.29-2.12-10.15-6.14-12.9-7.83a8.91,8.91,0,0,0-2.12-.84c-8.67,3.38-14.8-.22-19.66,5.71-5.5,6.34.85,6.34-5.07,16.28A17,17,0,0,0,45.82,72.37Z"/><path class="cls-1" d="M166.34,92.67a7.16,7.16,0,0,1-2.54-3.81,6.93,6.93,0,0,1,4.44.43,5.87,5.87,0,0,1,.59.37c.1-1.71.17-3.42.17-5.16q0-4.2-.41-8.3a11.08,11.08,0,0,1-2.68-2.77,11.62,11.62,0,0,1,2.19-1.18,83.1,83.1,0,0,0-4.93-18.58,10.49,10.49,0,0,1-4-3.29,9.78,9.78,0,0,1,2.13-1.15A84.49,84.49,0,1,0,13.33,130c.69-2.55.24-3.26,1.2-13.89,1.69-16.28,7.4-23,7.4-23a74.94,74.94,0,0,1,7.19-9.3C31,78.08,34,69.62,36.73,66.45,41,61.59,44.34,58,44.34,51.23s3-10.78,13.32-12.69,18.82.85,23.47-9.09c4.44-9.51,6.76-14.59,15.22-15,.64-.21,1.27.42,1.27,1.27A1.19,1.19,0,0,1,96.56,17c-1.9,0-5.71.84-8.24,5.92-3,6.34-3.17,11.84-11.21,16.7l2.54,2.11A44.4,44.4,0,0,1,83.88,44a68,68,0,0,0,11.84-5.92c9.93-6.55,18.81,1.69,20.29,3.17,6.35-1.48,16.71-.21,20.3.21.64,0,1.27.85,1.27,1.7s-.42,1.69-1.27,1.69c-3.38.21-12.26.63-16.07,0-1.69-.43-3.59.63-5.71,2.32a30.78,30.78,0,0,0,7,4.44c5.5,2.54,11.84,8.46,18.82,11.21S161.47,80,161.47,80v2.54s-15-15.43-22.41-16.28h-.21c2.54,5.08,8.67,16.7,12.26,18.82,4.44,2.75,10.57,11.42,10.57,11.42v.21h-1.9s-13.74-11.84-15.86-14c-1.69-1.69-8-12.89-10.78-18-4.23-1.9-7.19-5.28-10.15-8-2.75-2.75-8.46-5.5-11.63-7-3.59,2.75-8.45,5.92-14.8,7-12.68,1.9-16.28,1.48-21.35,9.51a22,22,0,0,1-5.5,5.29,11.06,11.06,0,0,1,5.5,2.11C78.8,76,82,81.25,86.63,85.06c0-.21,8.45-9.73,15.43-9.3,7.19.42,13.53,7.18,24.53,3.17l3.59-2.12c.85-.63,1.9.21,1.9,1.27,0,.64,0,1.06-.42,1.27-2.11,1.9-10.15,7.61-19,3.59-10.36-4.86-15.22-4.22-18.82,2.12-.84,1.48-1.48,2.54-1.9,3.17a22.48,22.48,0,0,0,4,1.06c9.94,1.27,16.7,2.75,26.43,9.93s7,5.5,7,5.5a1.49,1.49,0,0,1-1.69,1.48,8.57,8.57,0,0,1-1.9-1c-3.81-2.75-12.69-8.89-20.51-10.15-10.36-1.7-20.51-4.23-26.85-9.94s-6.13-8.67-17.13-8c-6.76,4-14.16,8.25-19.45,14-9.94,10.78-7.61,37.63-8.67,47.78-.42,4.68-.85,8.77-1.21,11.87a84.48,84.48,0,0,0,136.57-56.9A6,6,0,0,1,166.34,92.67ZM62.73,34.53S58.5,32.62,57,28.61a14,14,0,0,1-.42-8.25c.21-.85.64-2.33.64-2.33a17.23,17.23,0,0,1,1.9,1.48,14.64,14.64,0,0,1,4.65,7C64.85,30.51,62.73,34.53,62.73,34.53ZM78.17,23.32c-2.33,4.65-7.83,6.34-7.83,6.34s-2.11-5.28-.21-10.15a16.86,16.86,0,0,1,6.77-8C78,10.85,79.44,10,79.44,10s.21,1.9.42,3A18,18,0,0,1,78.17,23.32Zm26.43,5.5A14.08,14.08,0,0,1,97,32.2c-4,.42-7.62-2.54-7.62-2.54s2.54-3.8,6.56-4.44a13.24,13.24,0,0,1,8.24,1.06l2.12,1.06S105.23,28.18,104.6,28.82Zm8.45-16.71a11.11,11.11,0,0,1-4.86,3.81,9.19,9.19,0,0,1-5.92-.21s1.27-3.38,4-4.65a12.41,12.41,0,0,1,6.13-.85c.63.21,1.69.42,1.69.42S113.48,11.48,113.05,12.11Zm19.67,20.3a12.31,12.31,0,0,1-5.08,5.29c-3.17,1.69-7,.42-7,.42s.84-4,3.8-5.92a13,13,0,0,1,7-1.9,10.85,10.85,0,0,0,2.11.21S132.93,31.78,132.72,32.41Zm11,25.16a13.15,13.15,0,0,1-8.24-1.27c-3.6-1.9-5.08-6.34-5.08-6.34s4.23-1.69,8-.42a15.46,15.46,0,0,1,6.34,5.5A17.07,17.07,0,0,1,146,57.15S144.56,57.36,143.71,57.57ZM148.36,44a7.25,7.25,0,0,1-4-2.11,6.62,6.62,0,0,1-1.69-4.23A6.34,6.34,0,0,1,146.88,39a8.13,8.13,0,0,1,2.54,4,7.41,7.41,0,0,0,.21,1.27A7.41,7.41,0,0,0,148.36,44Zm9.73,21.36a8.49,8.49,0,0,1-4.65.42,5.87,5.87,0,0,1-3.38-2.54A6.65,6.65,0,0,1,154.28,62a8.27,8.27,0,0,1,4.23,2.12l.85.84A7.59,7.59,0,0,0,158.09,65.4Zm-50.53,5.49A13.84,13.84,0,0,1,101,72.37a10,10,0,0,1-5.71-3.17,9.34,9.34,0,0,1,5.92-2.54,12.06,12.06,0,0,1,6.56,2.12c.63.42,1.48,1.06,1.48,1.06S108.19,70.47,107.56,70.89Zm2.11-8.45a9.06,9.06,0,0,1-3.8-4.66s3.38-1.26,6.13-.21a10.11,10.11,0,0,1,4.65,4,12,12,0,0,0,.84,1.69,11.31,11.31,0,0,1-1.69.21A11,11,0,0,1,109.67,62.44Zm17.76,5.07a12.31,12.31,0,0,1-4.23,4.86,10.26,10.26,0,0,1-6.34,1.06,9.78,9.78,0,0,1,3.17-5.5,11.24,11.24,0,0,1,6.13-2.11h1.91S127.64,66.88,127.43,67.51Zm13.11,31.71a10,10,0,0,1-4.65,3,8,8,0,0,1-5.29-.84,7.41,7.41,0,0,1,3.81-3.6c2.54-.84,4.86-.21,5.71-.21.63.21,1.48.43,1.48.43A16.44,16.44,0,0,1,140.54,99.22Zm.64-7.4a13.27,13.27,0,0,1-8-.42c-3.59-1.48-5.5-5.5-5.5-5.5s4-2.11,7.83-1.05A13.75,13.75,0,0,1,142,89.29a13.44,13.44,0,0,0,1.27,1.9S142,91.61,141.18,91.82Z"/><path class="cls-1" d="M112.21,42.77c-2.75-1.69-7-3.8-11.84-1.9A27.06,27.06,0,0,0,89.8,48.06c1.48.84,2.53,1.69,3.59,2.32h.42C102.27,50,106.29,45.52,112.21,42.77Z"/></g></g></svg>