<svg xmlns="http://www.w3.org/2000/svg" viewBox="0 0 137.8 128.8"><defs><style>.cls-1{fill:#fff;}</style></defs><g id="Layer_2" data-name="Layer 2"><g id="Layer_1-2" data-name="Layer 1"><path class="cls-1" d="M137.8,31.2a20.3,20.3,0,0,1-2.6,3.6s-2,1-7.6,1c-26.8,0-60.2-19-62-19C23,16.8,9,30.8,7.6,32.2,4.8,29.4,0,17,0,6.8A20.3,20.3,0,0,1,2.6,3.2C5.8,1.6,11,0,21.6,0,49,0,77.8,14.6,79.6,14.6c34,0,48.2-8.2,50.4-9.4C133.8,10.2,137.8,18.4,137.8,31.2Z"/><path class="cls-1" d="M137.8,77.7a20.3,20.3,0,0,1-2.6,3.6s-2,1-7.6,1c-26.8,0-60.2-19-62-19C23,63.3,9,77.3,7.6,78.7,4.8,75.9,0,63.5,0,53.3a20.3,20.3,0,0,1,2.6-3.6c3.2-1.6,8.4-3.2,19-3.2,27.4,0,56.2,14.6,58,14.6,34,0,48.2-8.2,50.4-9.4C133.8,56.7,137.8,64.9,137.8,77.7Z"/><path class="cls-1" d="M137.8,124.2a20.3,20.3,0,0,1-2.6,3.6s-2,1-7.6,1c-26.8,0-60.2-19-62-19-42.6,0-56.6,14-58,15.4C4.8,122.4,0,110,0,99.8a20.3,20.3,0,0,1,2.6-3.6C5.8,94.6,11,93,21.6,93c27.4,0,56.2,14.6,58,14.6,34,0,48.2-8.2,50.4-9.4C133.8,103.2,137.8,111.4,137.8,124.2Z"/></g></g></svg>