<svg xmlns="http://www.w3.org/2000/svg" viewBox="0 0 116.11 116.1"><defs><style>.cls-1{fill:#fff;}</style></defs><g id="Layer_2" data-name="Layer 2"><g id="Layer_1-2" data-name="Layer 1"><path class="cls-1" d="M18.83.71A19.76,19.76,0,0,1,23.21,0s2.12.71,6.08,4.67c19,19,29.14,56,30.41,57.27,30.12,30.12,49.92,30.12,51.9,30.12,0,4-5.37,16.12-12.59,23.34a20.38,20.38,0,0,1-4.38.7c-3.39-1.13-8.2-3.67-15.7-11.17C59.56,85.56,49.52,54.87,48.24,53.6c-24-24-39.88-28.29-42.28-29C6.81,18.38,9.78,9.76,18.83.71Z"/><path class="cls-1" d="M115.4,19.34a20.56,20.56,0,0,1,.71,4.39s-.71,2.12-4.67,6.08c-19,19-56,29.13-57.28,30.41C24,90.34,24,110.14,24,112.12c-4,0-16.12-5.38-23.33-12.59A20,20,0,0,1,0,95.15c1.13-3.4,3.68-8.21,11.17-15.7C30.55,60.07,61.23,50,62.51,48.76c24-24,28.28-39.88,29-42.28C97.72,7.33,106.35,10.29,115.4,19.34Z"/></g></g></svg>