<svg xmlns="http://www.w3.org/2000/svg" viewBox="0 0 169 169"><defs><style>.cls-1{fill:#fff;}</style></defs><g id="Layer_2" data-name="Layer 2"><g id="Layer_1-2" data-name="Layer 1"><path class="cls-1" d="M84.5,0A84.5,84.5,0,1,0,169,84.5,84.5,84.5,0,0,0,84.5,0Zm22.75,54.57c-.31-3.22-3.85-20-15.24-22-.85-.15-6.16,6.1-8.44,19-1.38,7.82-1.24,17,2,25.26.72,1.88,28.06,7.92,24.11,33.35-2.9,18.43-20.52,34.79-40.07,31.34a37.15,37.15,0,0,1-22.73-13.3c2.61-14.8,11.78-21.07,14.67-20.56,1.2,5.12,6.77,26.27,20.54,28.7.51.09,5.49-4.3,8.13-19.26a49.68,49.68,0,0,0-3.6-30.27c-.86-2.08-25.71-10.32-21.43-34.64,2.52-14.28,20.72-29,41-25.39A28.72,28.72,0,0,1,125.42,39C124,47.17,113.2,55.62,107.25,54.57Z"/></g></g></svg>