<svg xmlns="http://www.w3.org/2000/svg" viewBox="0 0 495.85 436.68"><defs><style>.cls-1{font-size:200px;font-family:LisbethDisplay-Regular, Lisbeth Display;}.cls-1,.cls-4{fill:#fff;}.cls-2{letter-spacing:-0.02em;}.cls-3{letter-spacing:0em;}</style></defs><g id="Layer_2" data-name="Layer 2"><g id="Layer_1-2" data-name="Layer 1"><text class="cls-1" transform="translate(85.59 382.88)"><tspan class="cls-2">S</tspan><tspan class="cls-3" x="76.2" y="0">w</tspan><tspan x="213.2" y="0">ay</tspan></text><path class="cls-4" d="M404.77,225.76s-16-22.63-27.6-29.81c-9.38-5.52-25.39-35.88-32-49.12h.55c19.32,2.21,58.51,42.5,58.51,42.5v-6.62s-37-37.54-55.2-44.71-34.77-22.64-49.12-29.26a79.87,79.87,0,0,1-18.22-11.59c5.52-4.42,10.49-7.18,14.91-6.07,9.93,1.65,33.11.55,42,0,2.2,0,3.31-2.21,3.31-4.42s-1.66-4.41-3.31-4.41c-9.39-1.11-36.44-4.42-53-.56-3.87-3.86-27.05-25.39-53-8.28a176.81,176.81,0,0,1-30.92,15.46c-3.86-2.21-7.17-4.42-11-6.07L184,77.28c21-12.7,21.53-27.05,29.26-43.61,6.62-13.25,16.56-15.45,21.52-15.45,1.66,0,2.76-1.66,2.76-3.32,0-2.2-1.65-3.86-3.31-3.31-22.08,1.11-28.15,14.35-39.74,39.19-12.15,26-34.22,18.77-61.27,23.74S98.42,90,98.42,107.64s-8.83,27-19.87,39.74c-7.17,8.28-14.9,30.36-19.87,45.26a198,198,0,0,0-18.77,24.29S25,234.59,20.59,277.09c-3.86,43.06,1.11,23.74-9.93,56.86A286.63,286.63,0,0,0,.17,372.59a8.33,8.33,0,0,0,8.28,9.93H58.13A6.55,6.55,0,0,0,64.75,377c1.11-7.72,2.76-22.63,4.42-40.84,2.76-26.5-3.31-96.6,22.63-124.75,13.8-14.9,33.12-25.94,50.78-36.43,28.71-1.66,28.15,6.07,44.71,21s43.06,21.53,70.1,26c20.43,3.31,43.61,19.32,53.55,26.49a22,22,0,0,0,5,2.76c2.21.55,4.42-1.65,4.42-3.86,0,0,7.18,4.41-18.22-14.35s-43.05-22.63-69-25.95a57.42,57.42,0,0,1-10.49-2.76q1.65-2.47,5-8.28c9.38-16.56,22.08-18.21,49.12-5.52,23.19,10.49,44.16-4.41,49.68-9.38,1.11-.55,1.11-1.66,1.11-3.31,0-2.76-2.76-5-5-3.31L313.14,180c-28.7,10.48-45.26-7.18-64-8.28-18.21-1.11-40.29,23.73-40.29,24.28C196.68,186,188.4,172.22,179,166.15a28.79,28.79,0,0,0-14.35-5.52c6.07-4.42,11-8.83,14.35-13.8,13.25-21,22.63-19.87,55.75-24.84,16.56-2.76,29.26-11,38.64-18.22,8.28,3.87,23.19,11,30.36,18.22,7.73,7.17,15.46,16,26.5,21,7.17,13.25,23.73,42.51,28.15,46.92,5.52,5.52,41.4,36.43,41.4,36.43h5Zm-251.7-89.42c-16.56,14.35-33.12,18.77-50.78,26.49,0-6.07,1.65-13.24,6.62-22.07,15.46-25.95-1.1-25.95,13.25-42.51,12.69-15.45,28.7-6.07,51.33-14.9A22.59,22.59,0,0,1,179,85.56c7.18,4.41,19.87,14.9,33.67,20.42C196.12,107.64,181.22,112.6,153.07,136.34Zm74.52-30.91h-1.11c-2.76-1.66-5.52-3.87-9.38-6.07,3.31-3.87,12.14-12.7,27.6-18.77,12.69-5,23.73.55,30.91,5C260.15,92.73,249.67,104.32,227.59,105.43Z"/><path class="cls-4" d="M146.45,64s5.52-10.49,2.76-21S138.72,26.5,137.06,24.84a40.84,40.84,0,0,0-5-3.86s-1.1,3.86-1.65,6.07a36.52,36.52,0,0,0,1.1,21.52C135.41,59.06,146.45,64,146.45,64Z"/><path class="cls-4" d="M186.74,34.77a47,47,0,0,0,4.42-27C190.6,5,190.05,0,190.05,0s-3.86,2.21-6.62,3.86a44,44,0,0,0-17.66,21c-5,12.69.55,26.49.55,26.49S180.67,46.92,186.74,34.77Z"/><path class="cls-4" d="M216,51.33s9.38,7.73,19.87,6.63a36.72,36.72,0,0,0,19.87-8.83c1.65-1.66,4.41-3.87,4.41-3.87l-5.52-2.76a34.5,34.5,0,0,0-21.52-2.76C222.62,41.4,216,51.33,216,51.33Z"/><path class="cls-4" d="M285,139.65a29.82,29.82,0,0,0,4.42-.55,30.31,30.31,0,0,1-2.21-4.42c-1.1-1.65-5-7.72-12.14-10.48s-16,.55-16,.55,2.76,8.28,9.94,12.14S283.34,139.65,285,139.65Z"/><path class="cls-4" d="M265.12,15.46c7.73-2.76,11.59-8.84,12.7-9.94,1.1-1.66,2.76-3.86,2.76-3.86s-2.76-.56-4.42-1.11c-1.65,0-8.83-1.1-16,2.21S249.67,14.9,249.67,14.9,258,18.22,265.12,15.46Z"/><path class="cls-4" d="M323.08,104.32s3.86,11.6,13.25,16.56a34.5,34.5,0,0,0,21.53,3.32c2.2-.56,6.07-1.11,6.07-1.11a43.86,43.86,0,0,0-3.32-5.52c-1.65-2.21-6.62-9.93-16.55-14.35C334.12,99.91,323.08,104.32,323.08,104.32Z"/><path class="cls-4" d="M315.9,72.31a32,32,0,0,0,13.25-13.8,54.1,54.1,0,0,1,2.21-5,28.43,28.43,0,0,1-5.52-.55,33.82,33.82,0,0,0-18.22,5c-7.72,5-9.93,15.45-9.93,15.45S307.62,76.73,315.9,72.31Z"/><path class="cls-4" d="M370,88.87a19.63,19.63,0,0,1,3.31.55,19.63,19.63,0,0,1-.55-3.31c-.55-1.1-1.66-6.62-6.63-10.49-4.41-3.86-11-3.31-11-3.31s0,6.62,4.41,11C363.37,87.77,368.34,88.32,370,88.87Z"/><path class="cls-4" d="M383.25,145.72a22,22,0,0,0,12.14-1.1,21.62,21.62,0,0,1,3.31-1.1l-2.21-2.21a21.53,21.53,0,0,0-11-5.52c-6.07-.55-11,3.31-11,3.31A15.32,15.32,0,0,0,383.25,145.72Z"/><path class="cls-4" d="M410.85,114.81c7.72,1.66,14.9-1.1,16.55-1.65s4.42-1.66,4.42-1.66l-3.31-3.31a27.52,27.52,0,0,0-14.9-7.18c-8.28-1.1-15.46,4.42-15.46,4.42S403.12,112.6,410.85,114.81Z"/><path class="cls-4" d="M449.48,168.91c-1.65-1.11-7.72-6.63-16.56-8.28-8.83-1.11-17.11,5-17.11,5s5.52,8.84,14.35,10.49c8.84,2.21,16.56-1.1,18.22-1.65s5-2.21,5-2.21A32.61,32.61,0,0,0,449.48,168.91Z"/><path class="cls-4" d="M304.31,162.83c7.18-4.41,9.94-11,11-12.69.55-1.66,1.66-4.42,1.66-4.42h-5a29.38,29.38,0,0,0-16,5.52c-6.62,5-8.28,14.35-8.28,14.35S297.14,167.25,304.31,162.83Z"/><path class="cls-4" d="M246.91,147.93c-8.83,0-15.46,6.62-15.46,6.62s6.07,7.18,14.9,8.28c8.84.56,15.46-3.31,17.12-3.86,1.65-1.1,4.41-2.76,4.41-2.76s-2.21-1.66-3.86-2.76A31.44,31.44,0,0,0,246.91,147.93Z"/><path class="cls-4" d="M336.33,195.4c-9.94-2.76-20.43,2.76-20.43,2.76s5,10.49,14.36,14.35,18.76,1.66,21,1.11,5.52-1.66,5.52-1.66a34.84,34.84,0,0,1-3.31-5C351.78,205.34,346.26,198.16,336.33,195.4Z"/><path class="cls-4" d="M333.57,229.07c-6.63,2.21-9.94,9.39-9.94,9.39s6.63,3.86,13.8,2.2c6.63-1.65,11-6.62,12.15-7.72a42.29,42.29,0,0,0,2.76-3.32s-2.21-.55-3.87-1.1C346.26,228.52,340.19,226.86,333.57,229.07Z"/><path class="cls-4" d="M428.51,219.14h3.31a16.74,16.74,0,0,1-1.66-3.32,22.22,22.22,0,0,0-8.28-8.83c-5.51-2.76-11.59-1.1-11.59-1.1s1.66,6.62,6.63,9.93A17.2,17.2,0,0,0,428.51,219.14Z"/><path class="cls-4" d="M436.79,241.77c-6.07-3.31-13.8-1.11-13.8-1.11s1.65,7.73,7.73,11.6a25.54,25.54,0,0,0,13.8,3.86h3.86a38.74,38.74,0,0,1-1.66-3.86A20.31,20.31,0,0,0,436.79,241.77Z"/><path class="cls-4" d="M493.09,134.13c-1.66-.55-7.18-3.86-14.9-2.76-7.18,1.11-12.7,7.18-12.7,7.18s6.07,5.52,13.25,5.52,12.69-4.42,13.8-5a40.93,40.93,0,0,1,3.31-2.76A6.17,6.17,0,0,0,493.09,134.13Z"/><path class="cls-4" d="M438.44,65.69c-10.48,1.1-17.66,10.48-17.66,10.48s8.83,7.73,18.77,7.73c10.49-.55,18.21-6.07,19.87-7.17a41.73,41.73,0,0,0,4.42-3.87s-3.32-1.65-5-2.76C457.21,68.45,448.93,64,438.44,65.69Z"/></g></g></svg>